<?xml version="1.0" encoding="UTF-8" standalone="no"?>
<svg
   viewBox="0 0 512 512"
   version="1.1"
   id="svg14"
   sodipodi:docname="HTML5_logo_and_wordmark.svg"
   inkscape:version="1.1.1 (1:1.1+202109281949+c3084ef5ed)"
   xmlns:inkscape="http://www.inkscape.org/namespaces/inkscape"
   xmlns:sodipodi="http://sodipodi.sourceforge.net/DTD/sodipodi-0.dtd"
   xmlns="http://www.w3.org/2000/svg"
   xmlns:svg="http://www.w3.org/2000/svg">
  <defs
     id="defs18">
    <rect
       x="69.357227"
       y="-70.687278"
       width="363.02584"
       height="207.59101"
       id="rect54833" />
    <rect
       x="437.4"
       y="100.6"
       width="362.31588"
       height="98.839818"
       id="rect31221" />
  </defs>
  <sodipodi:namedview
     id="namedview16"
     pagecolor="#505050"
     bordercolor="#eeeeee"
     borderopacity="1"
     inkscape:pageshadow="0"
     inkscape:pageopacity="0"
     inkscape:pagecheckerboard="0"
     showgrid="false"
     inkscape:zoom="0.82421875"
     inkscape:cx="50.350711"
     inkscape:cy="367.01422"
     inkscape:window-width="1848"
     inkscape:window-height="1016"
     inkscape:window-x="72"
     inkscape:window-y="27"
     inkscape:window-maximized="1"
     inkscape:current-layer="svg14" />
  <title
     id="title2">HTML5 Logo</title>
  <path
     fill="#e44d26"
     d="M107.6 471l-33-370.4h362.8l-33 370.2L255.7 512"
     id="path6"
     style="fill:#008000" />
  <path
     fill="#f16529"
     d="M256 480.5V131H404.3L376 447"
     id="path8"
     style="fill:#00ff00" />
  <path
     fill="#ebebeb"
     d="M142 176.3h114v45.4h-64.2l4.2 46.5h60v45.3H154.4M156.4 336.3H202l3.2 36.3 50.8 13.6v47.4l-93.2-26"
     id="path10" />
  <path
     fill="#fff"
     d="M369.6 176.3H255.8v45.4h109.6M361.3 268.2H255.8v45.4h56l-5.3 59-50.7 13.6v47.2l93-25.8"
     id="path12" />
  <text
     xml:space="preserve"
     id="text31219"
     style="font-style:normal;font-weight:normal;font-size:40px;line-height:1.25;font-family:sans-serif;white-space:pre;shape-inside:url(#rect31221);fill:#000000;fill-opacity:1;stroke:none" />
  <text
     xml:space="preserve"
     id="text54831"
     style="font-style:normal;font-variant:normal;font-weight:bold;font-stretch:normal;font-size:113.333px;line-height:1.25;font-family:sans-serif;-inkscape-font-specification:'sans-serif Bold';white-space:pre;shape-inside:url(#rect54833);fill:#000000;fill-opacity:1;stroke:none"
     transform="translate(45.846194,53.830883)"><tspan
       x="69.357422"
       y="29.585643"
       id="tspan67502">WEB</tspan></text>
</svg>
